<svg width="550" height="550" viewBox="0 0 550 550" fill="none" xmlns="http://www.w3.org/2000/svg">
<path d="M25.9017 401.819V78.4612L167.643 166.11V326.645C167.643 329.287 167.001 331.89 165.772 334.229C164.543 336.568 162.764 338.574 160.588 340.072L51.4518 415.247C49.0042 416.932 46.1426 417.916 43.1763 418.093C40.2099 418.27 37.2516 417.633 34.6211 416.25C31.9906 414.868 29.788 412.793 28.2512 410.249C26.7144 407.706 25.902 404.791 25.9017 401.819Z" fill="#B84EE3"/>
<path style="mix-blend-mode:multiply" fill-rule="evenodd" clip-rule="evenodd" d="M25.8844 80.3295L167.626 249.013L167.518 177.061L25.8844 80.3295Z" fill="url(#paint0_linear_10_153)"/>
<path style="mix-blend-mode:multiply" fill-rule="evenodd" clip-rule="evenodd" d="M26.6835 81.0559L167.733 198.915L167.841 177.384L26.6835 81.0559Z" fill="url(#paint1_linear_10_153)"/>
<path d="M48.4444 457.545L443.269 194.124L500.872 232.825C508.298 237.813 514.384 244.552 518.591 252.447C522.799 260.342 525 269.151 525 278.098C525 287.044 522.799 295.853 518.591 303.748C514.384 311.643 508.298 318.382 500.872 323.37L181.14 536.343C171.046 543.126 159.16 546.748 146.998 546.748C134.836 546.748 122.95 543.126 112.856 536.343L48.4328 493.047C45.5227 491.09 43.1386 488.446 41.4905 485.35C39.8425 482.254 38.9812 478.8 38.9823 475.293C38.9834 471.786 39.8471 468.333 41.4971 465.238C43.1472 462.143 45.533 459.501 48.4444 457.545Z" fill="#A43ECD"/>
<path d="M443.269 362.072L29.4032 84.0721C28.0521 83.1643 26.9441 81.939 26.1765 80.5036C25.4089 79.0682 25.0049 77.4665 25 75.8388C24.9952 74.211 25.3895 72.6068 26.1486 71.1669C26.9076 69.7269 28.0081 68.4951 29.3538 67.5792L107.184 14.6078C117.287 7.73145 129.218 4.03705 141.44 4.00028C153.661 3.96351 165.614 7.58607 175.759 14.4015L500.869 232.825C508.296 237.813 514.381 244.552 518.589 252.447C522.796 260.342 524.997 269.151 524.997 278.098C524.997 287.044 522.796 295.853 518.589 303.748C514.381 311.643 508.296 318.382 500.869 323.37L443.269 362.072Z" fill="#D365FF"/>
<path style="mix-blend-mode:screen" opacity="0.2" d="M25.0388 75.4944C24.9713 77.1775 25.3365 78.8499 26.0996 80.3516C26.8627 81.8533 27.9981 83.1343 29.3974 84.0721L443.263 362.072L447.465 359.247L25.0388 75.4944Z" fill="url(#paint2_radial_10_153)"/>
<path style="mix-blend-mode:multiply" opacity="0.2" fill-rule="evenodd" clip-rule="evenodd" d="M443.269 362.072L277.988 305.183L318.302 278.16L443.269 362.072Z" fill="url(#paint3_linear_10_153)"/>
<path style="mix-blend-mode:multiply" opacity="0.2" fill-rule="evenodd" clip-rule="evenodd" d="M443.269 362.072L306.284 286.104L318.302 278.169L443.269 362.072Z" fill="url(#paint4_linear_10_153)"/>
<path style="mix-blend-mode:screen" opacity="0.2" d="M25.0388 75.4944C24.9713 77.1775 25.3365 78.8499 26.0996 80.3516C26.8627 81.8533 27.9981 83.1343 29.3974 84.0721L443.263 362.072L447.465 359.247L25.0388 75.4944Z" fill="url(#paint5_radial_10_153)"/>
<defs>
<linearGradient id="paint0_linear_10_153" x1="-125.354" y1="-18.1815" x2="285.928" y2="211.079" gradientUnits="userSpaceOnUse">
<stop stop-color="#890078"/>
<stop offset="0.108" stop-color="#961E87"/>
<stop offset="0.554" stop-color="#CE95C7"/>
<stop offset="0.86" stop-color="#F1E1EF"/>
<stop offset="1" stop-color="white"/>
</linearGradient>
<linearGradient id="paint1_linear_10_153" x1="-91.324" y1="-16.4136" x2="173.171" y2="283.11" gradientUnits="userSpaceOnUse">
<stop stop-color="#890078"/>
<stop offset="0.108" stop-color="#961E87"/>
<stop offset="0.554" stop-color="#CE95C7"/>
<stop offset="0.86" stop-color="#F1E1EF"/>
<stop offset="1" stop-color="white"/>
</linearGradient>
<radialGradient id="paint2_radial_10_153" cx="0" cy="0" r="1" gradientUnits="userSpaceOnUse" gradientTransform="translate(-136.874 -61.203) scale(264.929 265.084)">
<stop stop-color="white"/>
<stop offset="0.034" stop-color="#F6F600"/>
<stop offset="1"/>
</radialGradient>
<linearGradient id="paint3_linear_10_153" x1="77.5026" y1="373.819" x2="173.863" y2="669.077" gradientUnits="userSpaceOnUse">
<stop stop-color="#890078"/>
<stop offset="0.108" stop-color="#961E87"/>
<stop offset="0.554" stop-color="#CE95C7"/>
<stop offset="0.86" stop-color="#F1E1EF"/>
<stop offset="1" stop-color="white"/>
</linearGradient>
<linearGradient id="paint4_linear_10_153" x1="95.6017" y1="368.029" x2="228.305" y2="647.295" gradientUnits="userSpaceOnUse">
<stop stop-color="#890078"/>
<stop offset="0.108" stop-color="#961E87"/>
<stop offset="0.554" stop-color="#CE95C7"/>
<stop offset="0.86" stop-color="#F1E1EF"/>
<stop offset="1" stop-color="white"/>
</linearGradient>
<radialGradient id="paint5_radial_10_153" cx="0" cy="0" r="1" gradientUnits="userSpaceOnUse" gradientTransform="translate(568.703 316.792) scale(351.887 238.719)">
<stop stop-color="white"/>
<stop offset="0.034" stop-color="#F6F600"/>
<stop offset="1"/>
</radialGradient>
</defs>
</svg>
